<svg width="77" height="40" viewBox="0 0 77 40" fill="none" xmlns="http://www.w3.org/2000/svg">
<path d="M52.0852 15.3509C51.6059 14.9982 50.8444 14.7724 50.1113 14.7865C49.3076 14.8007 48.5461 15.0546 48.0103 15.4779V10.4268H45.5146V26.9065H48.0103V18.2998C48.0103 17.7072 48.5179 17.044 49.4486 17.0017C49.8575 16.9876 50.4355 17.171 50.7317 17.6084C51.0418 18.0599 51.0278 18.6807 51.0278 19.3439L51.0136 26.9065H53.5093V19.2592C53.5093 17.0017 53.2273 16.1975 52.0852 15.3509Z" fill="white"/>
<path d="M31.7815 21.0084C31.7815 22.6168 31.7251 23.0683 31.711 23.2094C31.6264 24.1124 31.2457 25.0577 30.2023 25.0577C29.173 25.0577 28.75 24.0419 28.7077 23.1671C28.6936 23.1671 28.6372 22.6168 28.6372 21.0084C28.6372 19.3999 28.6936 18.7226 28.7077 18.7226C28.7077 17.8055 29.1871 16.9025 30.2023 16.9025C31.2316 16.9025 31.6969 17.8055 31.711 18.7085C31.711 18.7226 31.7815 19.3999 31.7815 21.0084ZM34.1926 19.0613C33.8401 15.548 31.8379 14.7861 30.2023 14.7861C27.8758 14.7861 26.4658 16.2676 26.212 19.0613C26.1838 19.287 26.1556 19.6962 26.1415 21.0084C26.1274 21.9678 26.1979 22.7579 26.212 22.9554C26.3671 25.5657 27.8617 27.16 30.2023 27.16C32.5429 27.16 34.0375 25.5375 34.2067 22.9554C34.2208 22.772 34.2631 21.9678 34.2631 21.0084C34.2631 20.571 34.2349 19.3999 34.1926 19.0613Z" fill="white"/>
<path d="M57.6829 19.5269C57.697 18.9766 57.697 18.8637 57.7111 18.7085C57.7816 17.7209 58.2187 16.9025 59.2339 16.9025C60.4324 16.8884 60.7144 18.0595 60.7567 18.7085C60.7849 19.0613 60.799 19.287 60.799 19.5269H57.6829ZM60.7708 22.8285C60.7708 22.8285 60.7708 23.0119 60.7426 23.2376C60.6721 23.8161 60.4465 25.0577 59.2339 25.0577C58.1905 25.0577 57.7957 24.1124 57.7252 23.1812C57.7111 22.9131 57.6688 22.6168 57.6688 21.6009H63.2383C63.2383 21.6009 63.2383 20.7685 63.2242 20.2747C63.2242 20.0771 63.2101 19.7526 63.1678 19.0613C63.0832 18.0031 62.6884 16.8461 62.0821 16.1124C61.3912 15.2376 60.4042 14.7861 59.2339 14.7861C56.9779 14.7861 55.5679 16.2535 55.3 19.0613C55.2718 19.3152 55.2295 19.668 55.2295 21.0084C55.2295 21.9678 55.2859 22.772 55.3 22.9554C55.441 25.5233 56.9638 27.16 59.2339 27.16C61.4899 27.16 62.9986 25.5657 63.1678 22.8285H60.7708Z" fill="white"/>
<path d="M18.2454 2.01764H58.8251L74.3351 20.1905L58.8251 38.1093H18.2454L2.66489 20.134L18.2454 2.01764ZM59.798 0H17.2584L0 20.0635L17.2725 40H59.798L77 20.134L59.798 0Z" fill="white"/>
<path d="M18.7531 12.6701H19.9234C21.2065 12.6701 21.9115 13.3474 21.9397 14.5608C21.9397 14.6595 21.9538 14.7583 21.9538 14.9417C21.9538 15.1675 21.9538 15.238 21.9397 15.3368C21.8692 16.0564 21.5449 17.3121 20.0503 17.3121H18.7531V12.6701ZM24.661 25.8765L24.4072 21.8412C24.2944 20.0352 23.8291 18.9629 22.8844 18.4126C23.5612 18.0034 24.4354 17.0017 24.4213 14.8994C24.4213 11.7107 22.4332 10.5819 20.0926 10.5537H16.2856V26.9064H18.739L18.7531 19.4285H20.1208C20.9104 19.4285 21.7987 20.1198 21.9397 22.0669L22.1935 25.8906C22.2217 26.4408 22.3204 26.9064 22.3204 26.9064H24.7879C24.7879 26.9064 24.6751 26.4549 24.661 25.8765Z" fill="white"/>
<path d="M41.4819 22.7156C41.4819 22.899 41.4678 23.0542 41.4537 23.1671C41.3832 24.0842 41.073 25.0577 39.945 25.0577C38.9157 25.0577 38.5068 23.9995 38.4222 23.2235C38.3799 22.7579 38.394 22.3911 38.3799 21.0084C38.3658 19.3999 38.4222 18.9766 38.4504 18.7226C38.535 17.6927 38.9298 16.9025 39.945 16.9025C41.0025 16.8884 41.4396 17.8055 41.4537 18.7085C41.4537 18.7227 41.4819 18.9343 41.496 19.414H43.9635C43.9635 19.2447 43.9494 19.1036 43.9494 19.0331C43.6674 15.6186 41.5806 14.7861 39.945 14.7861C37.6185 14.7861 36.2085 16.2676 35.9547 19.0613C35.9265 19.287 35.8983 19.6962 35.8842 21.0084C35.8701 21.9678 35.9406 22.7579 35.9547 22.9555C36.1098 25.5657 37.6044 27.16 39.945 27.16C42.3702 27.1741 43.7097 25.6927 43.9494 22.9555C43.9494 22.8567 43.9635 22.7861 43.9635 22.7156H41.4819Z" fill="white"/>
</svg>
