<svg width="78" height="41" viewBox="0 0 78 41" fill="none" xmlns="http://www.w3.org/2000/svg">
<path d="M52.4238 15.5706C51.9413 15.2159 51.175 14.9889 50.437 15.003C49.6281 15.0172 48.8617 15.2726 48.3224 15.6983V10.6189H45.8105V27.1907H48.3224V18.5359C48.3224 17.94 48.8333 17.2731 49.77 17.2306C50.1815 17.2164 50.7634 17.4008 51.0614 17.8407C51.3736 18.2947 51.3594 18.919 51.3594 19.5858L51.3452 27.1907H53.8571V19.5007C53.8571 17.2306 53.5733 16.4219 52.4238 15.5706Z" fill="#0078C1"/>
<path d="M31.9876 21.2599C31.9876 22.8774 31.9308 23.3314 31.9166 23.4733C31.8315 24.3813 31.4483 25.3319 30.3981 25.3319C29.3621 25.3319 28.9364 24.3104 28.8938 23.4307C28.8796 23.4307 28.8228 22.8774 28.8228 21.2599C28.8228 19.6425 28.8796 18.9614 28.8938 18.9614C28.8938 18.0392 29.3763 17.1312 30.3981 17.1312C31.4341 17.1312 31.9024 18.0392 31.9166 18.9472C31.9166 18.9614 31.9876 19.6425 31.9876 21.2599ZM34.4143 19.302C34.0595 15.7691 32.0443 15.0029 30.3981 15.0029C28.0565 15.0029 26.6373 16.4927 26.3819 19.302C26.3535 19.529 26.3251 19.9404 26.3109 21.2599C26.2968 22.2247 26.3677 23.0192 26.3819 23.2179C26.538 25.8427 28.0423 27.446 30.3981 27.446C32.7539 27.446 34.2582 25.8143 34.4285 23.2179C34.4427 23.0334 34.4853 22.2247 34.4853 21.2599C34.4853 20.8201 34.4569 19.6425 34.4143 19.302Z" fill="#0078C1"/>
<path d="M58.0577 19.7702C58.0719 19.2168 58.0719 19.1033 58.0861 18.9472C58.157 17.9541 58.597 17.1312 59.6188 17.1312C60.8251 17.117 61.1089 18.2946 61.1515 18.9472C61.1798 19.302 61.194 19.529 61.194 19.7702H58.0577ZM61.1656 23.0902C61.1656 23.0902 61.1656 23.2746 61.1373 23.5016C61.0663 24.0834 60.8393 25.3319 59.6188 25.3319C58.5686 25.3319 58.1712 24.3813 58.1003 23.4449C58.0861 23.1753 58.0435 22.8774 58.0435 21.8558H63.6492C63.6492 21.8558 63.6492 21.0187 63.635 20.5221C63.635 20.3235 63.6208 19.9972 63.5782 19.302C63.4931 18.2378 63.0957 17.0744 62.4855 16.3366C61.7901 15.457 60.7967 15.0029 59.6188 15.0029C57.3481 15.0029 55.929 16.4785 55.6593 19.302C55.631 19.5573 55.5884 19.912 55.5884 21.2599C55.5884 22.2247 55.6452 23.0334 55.6593 23.2179C55.8013 25.8001 57.3339 27.446 59.6188 27.446C61.8894 27.446 63.4079 25.8427 63.5782 23.0902H61.1656Z" fill="#0078C1"/>
<path d="M18.3638 2.1627H59.2071L74.8178 20.4371L59.2071 38.456H18.3638L2.6822 20.3803L18.3638 2.1627ZM60.1863 0.133789H17.3704L0 20.3094L17.3846 40.3573H60.1863L77.5 20.3803L60.1863 0.133789Z" fill="#0078C1"/>
<path d="M18.8746 12.8748H20.0525C21.344 12.8748 22.0535 13.5558 22.0819 14.776C22.0819 14.8753 22.0961 14.9747 22.0961 15.1591C22.0961 15.3861 22.0961 15.457 22.0819 15.5564C22.011 16.28 21.6846 17.5427 20.1803 17.5427H18.8746V12.8748ZM24.8209 26.1549L24.5654 22.0971C24.4519 20.281 23.9836 19.2027 23.0328 18.6494C23.7139 18.2379 24.5938 17.2306 24.5796 15.1165C24.5796 11.91 22.5786 10.775 20.2228 10.7466H16.3911V27.1907H18.8604L18.8746 19.6709H20.2512C21.0459 19.6709 21.94 20.3662 22.0819 22.3241L22.3374 26.1691C22.3658 26.7225 22.4651 27.1907 22.4651 27.1907H24.9486C24.9486 27.1907 24.8351 26.7366 24.8209 26.1549Z" fill="#0078C1"/>
<path d="M41.7516 22.9767C41.7516 23.1611 41.7374 23.3172 41.7232 23.4307C41.6523 24.3529 41.3401 25.3319 40.2048 25.3319C39.1688 25.3319 38.7572 24.2678 38.6721 23.4875C38.6295 23.0193 38.6437 22.6504 38.6295 21.2599C38.6153 19.6425 38.6721 19.2168 38.7004 18.9614C38.7856 17.9257 39.183 17.1312 40.2048 17.1312C41.2691 17.117 41.7091 18.0392 41.7232 18.9472C41.7232 18.9614 41.7516 19.1743 41.7658 19.6567H44.2493C44.2493 19.4864 44.2351 19.3445 44.2351 19.2736C43.9513 15.84 41.851 15.0029 40.2048 15.0029C37.8632 15.0029 36.444 16.4927 36.1885 19.302C36.1602 19.529 36.1318 19.9404 36.1176 21.2599C36.1034 22.2247 36.1744 23.0192 36.1885 23.2179C36.3446 25.8427 37.849 27.446 40.2048 27.446C42.6457 27.4602 43.9939 25.9704 44.2351 23.2179C44.2351 23.1186 44.2493 23.0476 44.2493 22.9767H41.7516Z" fill="#0078C1"/>
</svg>
