<svg width="16" height="17" viewBox="0 0 16 17" fill="none" xmlns="http://www.w3.org/2000/svg">
<g clip-path="url(#clip0_5619_109985)">
<path d="M7.99967 1.83301C11.6797 1.83301 14.6663 4.81967 14.6663 8.49967C14.6663 12.1797 11.6797 15.1663 7.99967 15.1663C4.31967 15.1663 1.33301 12.1797 1.33301 8.49967C1.33301 4.81967 4.31967 1.83301 7.99967 1.83301ZM7.99967 13.833C10.9463 13.833 13.333 11.4463 13.333 8.49967C13.333 5.55301 10.9463 3.16634 7.99967 3.16634C5.05301 3.16634 2.66634 5.55301 2.66634 8.49967C2.66634 11.4463 5.05301 13.833 7.99967 13.833ZM8.66634 8.49967V11.1663H7.33301V8.49967H5.33301L7.99967 5.83301L10.6663 8.49967H8.66634Z" fill="#6B7280"/>
</g>
<defs>
<clipPath id="clip0_5619_109985">
<rect y="0.5" width="16" height="16" rx="2" fill="white"/>
</clipPath>
</defs>
</svg>
