<svg width="40" height="40" viewBox="0 0 40 40" fill="none" xmlns="http://www.w3.org/2000/svg">
<path d="M17.1883 19.2767L30.4216 6.04333L33.9566 9.57834L31.5999 11.935L35.1349 15.47L29.2433 21.3633L25.7083 17.8283L20.7249 22.8117C21.6425 24.5772 21.8984 26.6126 21.4464 28.5503C20.9944 30.488 19.8642 32.2001 18.2601 33.3773C16.656 34.5545 14.6838 35.1192 12.6997 34.9693C10.7157 34.8194 8.85064 33.9648 7.4416 32.56C6.03186 31.1525 5.17296 29.2866 5.02053 27.3003C4.86811 25.3141 5.43226 23.339 6.61074 21.7329C7.78922 20.1268 9.50406 18.996 11.4445 18.5454C13.385 18.0948 15.4226 18.3542 17.1883 19.2767ZM15.6899 29.0233C16.0083 28.7158 16.2622 28.348 16.4369 27.9413C16.6116 27.5347 16.7036 27.0973 16.7074 26.6547C16.7113 26.2121 16.6269 25.7731 16.4593 25.3635C16.2917 24.9538 16.0442 24.5817 15.7313 24.2687C15.4183 23.9557 15.0461 23.7082 14.6365 23.5406C14.2268 23.373 13.7879 23.2887 13.3453 23.2925C12.9027 23.2963 12.4653 23.3883 12.0586 23.563C11.6519 23.7377 11.2841 23.9916 10.9766 24.31C10.3694 24.9387 10.0334 25.7807 10.041 26.6547C10.0486 27.5287 10.3992 28.3647 11.0172 28.9827C11.6352 29.6008 12.4713 29.9513 13.3453 29.9589C14.2193 29.9665 15.0613 29.6305 15.6899 29.0233Z" fill="#0284C7"/>
</svg>
