<svg width="16" height="16" viewBox="0 0 16 16" fill="none" xmlns="http://www.w3.org/2000/svg">
<g clip-path="url(#clip0_4919_129161)">
<path d="M2.66686 10.6667H13.3335V3.33333H2.66686V10.6667ZM8.66686 12V13.3333H11.3335V14.6667H4.66686V13.3333H7.33352V12H1.99486C1.90731 11.9995 1.82073 11.9817 1.74008 11.9476C1.65943 11.9136 1.58629 11.864 1.52485 11.8016C1.46341 11.7392 1.41489 11.6654 1.38206 11.5842C1.34923 11.503 1.33273 11.4162 1.33352 11.3287V2.67133C1.33352 2.30067 1.63686 2 1.99486 2H14.0055C14.3709 2 14.6669 2.29933 14.6669 2.67133V11.3287C14.6669 11.6993 14.3635 12 14.0055 12H8.66686Z" fill="#0284C7"/>
</g>
<defs>
<clipPath id="clip0_4919_129161">
<rect width="16" height="16" fill="white"/>
</clipPath>
</defs>
</svg>
