<svg width="24" height="24" viewBox="0 0 24 24" fill="none" xmlns="http://www.w3.org/2000/svg">
  <defs></defs>
  <path d="M 7 6 L 7 3 C 7 2.735 7.105 2.48 7.293 2.293 C 7.48 2.105 7.735 2 8 2 L 20 2 C 20.265 2 20.52 2.105 20.707 2.293 C 20.895 2.48 21 2.735 21 3 L 21 17 C 21 17.265 20.895 17.52 20.707 17.707 C 20.52 17.895 20.265 18 20 18 L 17 18 L 17 21 C 17 21.552 16.55 22 15.993 22 L 4.007 22 C 3.875 22.001 3.744 21.976 3.622 21.926 C 3.5 21.876 3.389 21.802 3.296 21.709 C 3.202 21.616 3.128 21.506 3.077 21.384 C 3.026 21.262 3 21.132 3 21 L 3.003 7 C 3.003 6.448 3.453 6 4.01 6 L 7 6 Z" style="fill: rgb(156, 163, 175);"></path>
</svg>
