<svg width="16" height="17" viewBox="0 0 16 17" fill="none" xmlns="http://www.w3.org/2000/svg">
<g clip-path="url(#clip0_1370_18050)">
<path d="M14.6666 9.16667H13.3333V5.32533L8.04792 10.0587L2.66659 5.31067V13.1667H9.33325V14.5H1.99992C1.82311 14.5 1.65354 14.4298 1.52851 14.3047C1.40349 14.1797 1.33325 14.0101 1.33325 13.8333V3.16667C1.33325 2.98986 1.40349 2.82029 1.52851 2.69526C1.65354 2.57024 1.82311 2.5 1.99992 2.5H13.9999C14.1767 2.5 14.3463 2.57024 14.4713 2.69526C14.5963 2.82029 14.6666 2.98986 14.6666 3.16667V9.16667ZM3.00725 3.83333L8.04059 8.27467L13.0013 3.83333H3.00725ZM13.9999 12.5H15.9999V13.8333H13.9999V15.8333H12.6666V13.8333H10.6666V12.5H12.6666V10.5H13.9999V12.5Z" fill="#9CA3AF"/>
</g>
<defs>
<clipPath id="clip0_1370_18050">
<rect width="16" height="16" fill="white" transform="translate(0 0.5)"/>
</clipPath>
</defs>
</svg>
