<svg width="40" height="40" viewBox="0 0 40 40" fill="none" xmlns="http://www.w3.org/2000/svg">
<path d="M36.6667 33.345C36.6636 33.7827 36.4885 34.2016 36.1791 34.5113C35.8698 34.821 35.451 34.9965 35.0133 35H4.98667C4.54802 34.9996 4.12749 34.825 3.81748 34.5147C3.50747 34.2043 3.33333 33.7836 3.33333 33.345V31.6667H33.3333V12.1667L20 24.1667L3.33333 9.16667V6.66667C3.33333 6.22464 3.50893 5.80072 3.82149 5.48816C4.13405 5.17559 4.55797 5 5 5H35C35.442 5 35.866 5.17559 36.1785 5.48816C36.4911 5.80072 36.6667 6.22464 36.6667 6.66667V33.345ZM7.39 8.33333L20 19.6833L32.61 8.33333H7.39ZM0 25H13.3333V28.3333H0V25ZM0 16.6667H8.33333V20H0V16.6667Z" fill="#0284C7"/>
</svg>
