<svg width="14" height="14" viewBox="0 0 14 14" fill="none" xmlns="http://www.w3.org/2000/svg">
<path d="M3.00016 11.6673H1.00016C0.823352 11.6673 0.653782 11.5971 0.528758 11.4721C0.403734 11.347 0.333496 11.1775 0.333496 11.0007V4.33398C0.333496 4.15717 0.403734 3.9876 0.528758 3.86258C0.653782 3.73756 0.823352 3.66732 1.00016 3.66732H3.00016V1.00065C3.00016 0.82384 3.0704 0.654271 3.19543 0.529246C3.32045 0.404222 3.49002 0.333984 3.66683 0.333984H10.3335C10.5103 0.333984 10.6799 0.404222 10.8049 0.529246C10.9299 0.654271 11.0002 0.82384 11.0002 1.00065V3.66732H13.0002C13.177 3.66732 13.3465 3.73756 13.4716 3.86258C13.5966 3.9876 13.6668 4.15717 13.6668 4.33398V11.0007C13.6668 11.1775 13.5966 11.347 13.4716 11.4721C13.3465 11.5971 13.177 11.6673 13.0002 11.6673H11.0002V13.0007C11.0002 13.1775 10.9299 13.347 10.8049 13.4721C10.6799 13.5971 10.5103 13.6673 10.3335 13.6673H3.66683C3.49002 13.6673 3.32045 13.5971 3.19543 13.4721C3.0704 13.347 3.00016 13.1775 3.00016 13.0007V11.6673ZM3.00016 10.334V9.66732C3.00016 9.49051 3.0704 9.32094 3.19543 9.19591C3.32045 9.07089 3.49002 9.00065 3.66683 9.00065H10.3335C10.5103 9.00065 10.6799 9.07089 10.8049 9.19591C10.9299 9.32094 11.0002 9.49051 11.0002 9.66732V10.334H12.3335V5.00065H1.66683V10.334H3.00016ZM4.3335 1.66732V3.66732H9.66683V1.66732H4.3335ZM4.3335 10.334V12.334H9.66683V10.334H4.3335ZM2.3335 5.66732H4.3335V7.00065H2.3335V5.66732Z" fill="#6B7280"/>
</svg>
