<svg width="20" height="21" viewBox="0 0 20 21" fill="none" xmlns="http://www.w3.org/2000/svg">
<g clip-path="url(#clip0_3019_9160)">
<path d="M12.5 3.83366H4.16667V17.167H15.8333V7.16699H12.5V3.83366ZM2.5 2.99366C2.5 2.53699 2.8725 2.16699 3.3325 2.16699H13.3333L17.5 6.33366V17.9945C17.5008 18.1039 17.48 18.2124 17.4388 18.3138C17.3976 18.4152 17.3369 18.5075 17.2601 18.5855C17.1832 18.6634 17.0918 18.7254 16.991 18.768C16.8902 18.8106 16.7819 18.8329 16.6725 18.8337H3.3275C3.10865 18.8321 2.89918 18.7446 2.74435 18.5899C2.58951 18.4352 2.50175 18.2258 2.5 18.007V2.99366ZM9.16667 9.66699V7.16699H10.8333V9.66699H13.3333V11.3337H10.8333V13.8337H9.16667V11.3337H6.66667V9.66699H9.16667Z" fill="white"/>
</g>
<defs>
<clipPath id="clip0_3019_9160">
<rect width="20" height="20" fill="white" transform="translate(0 0.5)"/>
</clipPath>
</defs>
</svg>
