<svg width="40" height="40" viewBox="0 0 40 40" fill="none" xmlns="http://www.w3.org/2000/svg">
<path d="M20.0002 3.33331C29.2052 3.33331 36.6668 10.795 36.6668 20C36.6668 23.56 35.5502 26.86 33.6485 29.5683L28.3335 20H33.3335C33.3332 16.927 32.2715 13.9484 30.328 11.5681C28.3844 9.18784 25.6783 7.55197 22.6674 6.93724C19.6565 6.32252 16.5257 6.76668 13.8046 8.19459C11.0835 9.6225 8.9392 11.9465 7.73437 14.7734C6.52954 17.6004 6.33817 20.7567 7.19265 23.7085C8.04712 26.6603 9.89498 29.2264 12.4236 30.9726C14.9523 32.7188 18.0065 33.5379 21.0696 33.2915C24.1327 33.045 27.0166 31.748 29.2335 29.62L30.8968 32.6116C27.8721 35.2326 24.0024 36.6726 20.0002 36.6666C10.7952 36.6666 3.3335 29.205 3.3335 20C3.3335 10.795 10.7952 3.33331 20.0002 3.33331ZM20.0002 11.6666C21.3262 11.6666 22.598 12.1934 23.5357 13.1311C24.4734 14.0688 25.0002 15.3406 25.0002 16.6666V18.3333H26.6668V26.6666H13.3335V18.3333H15.0002V16.6666C15.0002 15.3406 15.5269 14.0688 16.4646 13.1311C17.4023 12.1934 18.6741 11.6666 20.0002 11.6666ZM23.3335 21.6666H16.6668V23.3333H23.3335V21.6666ZM20.0002 15C19.5919 15 19.1979 15.1499 18.8929 15.4212C18.5878 15.6924 18.3929 16.0662 18.3452 16.4716L18.3335 16.6666V18.3333H21.6668V16.6666C21.6668 16.2584 21.5169 15.8644 21.2456 15.5594C20.9744 15.2543 20.6006 15.0594 20.1952 15.0116L20.0002 15Z" fill="#0284C7"/>
</svg>
