<svg width="12" height="15" viewBox="0 0 12 15" fill="none" xmlns="http://www.w3.org/2000/svg">
<path d="M6 14.8193L1.75734 10.5766C0.918228 9.73748 0.346791 8.66838 0.115286 7.5045C-0.11622 6.34061 0.00260456 5.13422 0.456732 4.03787C0.91086 2.94151 1.6799 2.00445 2.66659 1.34516C3.65328 0.685876 4.81332 0.333984 6 0.333984C7.18669 0.333984 8.34672 0.685876 9.33342 1.34516C10.3201 2.00445 11.0891 2.94151 11.5433 4.03787C11.9974 5.13422 12.1162 6.34061 11.8847 7.5045C11.6532 8.66838 11.0818 9.73748 10.2427 10.5766L6 14.8193ZM9.3 9.63393C9.9526 8.98127 10.397 8.14975 10.577 7.24451C10.7571 6.33928 10.6646 5.401 10.3114 4.5483C9.95817 3.69561 9.36003 2.9668 8.59261 2.45404C7.82519 1.94129 6.92296 1.6676 6 1.6676C5.07704 1.6676 4.17481 1.94129 3.40739 2.45404C2.63997 2.9668 2.04183 3.69561 1.68861 4.5483C1.33539 5.401 1.24294 6.33928 1.42297 7.24451C1.603 8.14975 2.04741 8.98127 2.7 9.63393L6 12.9339L9.3 9.63393ZM6 7.66726C5.64638 7.66726 5.30724 7.52679 5.05719 7.27674C4.80715 7.02669 4.66667 6.68755 4.66667 6.33393C4.66667 5.98031 4.80715 5.64117 5.05719 5.39112C5.30724 5.14107 5.64638 5.0006 6 5.0006C6.35362 5.0006 6.69276 5.14107 6.94281 5.39112C7.19286 5.64117 7.33334 5.98031 7.33334 6.33393C7.33334 6.68755 7.19286 7.02669 6.94281 7.27674C6.69276 7.52679 6.35362 7.66726 6 7.66726Z" fill="#6B7280"/>
</svg>
