<svg width="28" height="36" viewBox="0 0 28 36" fill="none" xmlns="http://www.w3.org/2000/svg">
<path d="M27.3332 35.6666H23.9998V32.3333C23.9998 31.0072 23.4731 29.7354 22.5354 28.7978C21.5977 27.8601 20.3259 27.3333 18.9998 27.3333H8.99984C7.67375 27.3333 6.40199 27.8601 5.4643 28.7978C4.52662 29.7354 3.99984 31.0072 3.99984 32.3333V35.6666H0.666504V32.3333C0.666504 30.1232 1.54448 28.0035 3.10728 26.4407C4.67008 24.8779 6.7897 24 8.99984 24H18.9998C21.21 24 23.3296 24.8779 24.8924 26.4407C26.4552 28.0035 27.3332 30.1232 27.3332 32.3333V35.6666ZM13.9998 20.6666C12.6866 20.6666 11.3863 20.408 10.173 19.9054C8.95975 19.4029 7.85735 18.6663 6.92877 17.7377C6.00018 16.8091 5.26359 15.7067 4.76104 14.4935C4.25849 13.2802 3.99984 11.9798 3.99984 10.6666C3.99984 9.35341 4.25849 8.05305 4.76104 6.83979C5.26359 5.62654 6.00018 4.52414 6.92877 3.59556C7.85735 2.66697 8.95975 1.93038 10.173 1.42783C11.3863 0.925283 12.6866 0.666626 13.9998 0.666626C16.652 0.666626 19.1955 1.72019 21.0709 3.59556C22.9463 5.47092 23.9998 8.01446 23.9998 10.6666C23.9998 13.3188 22.9463 15.8623 21.0709 17.7377C19.1955 19.6131 16.652 20.6666 13.9998 20.6666ZM13.9998 17.3333C15.7679 17.3333 17.4636 16.6309 18.7139 15.3807C19.9641 14.1304 20.6665 12.4347 20.6665 10.6666C20.6665 8.89852 19.9641 7.20282 18.7139 5.95258C17.4636 4.70234 15.7679 3.99996 13.9998 3.99996C12.2317 3.99996 10.536 4.70234 9.28579 5.95258C8.03555 7.20282 7.33317 8.89852 7.33317 10.6666C7.33317 12.4347 8.03555 14.1304 9.28579 15.3807C10.536 16.6309 12.2317 17.3333 13.9998 17.3333Z" fill="#0284C7"/>
</svg>
