<svg width="16" height="17" viewBox="0 0 16 17" fill="none" xmlns="http://www.w3.org/2000/svg">
<g clip-path="url(#clip0_1314_7132)">
<path d="M2.66675 12.4997H4.00008V13.833H12.0001V3.16634H4.00008V4.49967H2.66675V2.49967C2.66675 2.32286 2.73699 2.15329 2.86201 2.02827C2.98703 1.90325 3.1566 1.83301 3.33341 1.83301H12.6667C12.8436 1.83301 13.0131 1.90325 13.1382 2.02827C13.2632 2.15329 13.3334 2.32286 13.3334 2.49967V14.4997C13.3334 14.6765 13.2632 14.8461 13.1382 14.9711C13.0131 15.0961 12.8436 15.1663 12.6667 15.1663H3.33341C3.1566 15.1663 2.98703 15.0961 2.86201 14.9711C2.73699 14.8461 2.66675 14.6765 2.66675 14.4997V12.4997ZM4.00008 7.83301H8.66675V9.16634H4.00008V11.1663L0.666748 8.49967L4.00008 5.83301V7.83301Z" fill="#9CA3AF"/>
</g>
<defs>
<clipPath id="clip0_1314_7132">
<rect width="16" height="16" fill="white" transform="translate(0 0.5)"/>
</clipPath>
</defs>
</svg>
