<svg width="20" height="20" viewBox="0 0 20 20" fill="none" xmlns="http://www.w3.org/2000/svg">
<g clip-path="url(#clip0_5619_108412)">
<path d="M15.0003 2.5C16.3812 2.5 17.5003 3.61917 17.5003 5C17.5003 6.38083 16.3812 7.5 15.0003 7.5H12.5003C11.412 7.5 10.4862 6.805 10.1428 5.83333H9.16699C8.25033 5.83333 7.50033 6.58333 7.50033 7.5V7.6425C8.47199 7.98583 9.16699 8.91167 9.16699 10C9.16699 11.0883 8.47199 12.0142 7.50033 12.3575V12.5C7.50033 13.4167 8.25033 14.1667 9.16699 14.1667H10.142C10.4853 13.1958 11.412 12.5 12.5003 12.5H15.0003C16.3812 12.5 17.5003 13.6192 17.5003 15C17.5003 16.3808 16.3812 17.5 15.0003 17.5H12.5003C11.412 17.5 10.4862 16.805 10.1428 15.8333H9.16699C7.32533 15.8333 5.83366 14.3417 5.83366 12.5H4.16699C2.78616 12.5 1.66699 11.3808 1.66699 10C1.66699 8.61917 2.78616 7.5 4.16699 7.5H5.83366C5.83366 5.65833 7.32533 4.16667 9.16699 4.16667H10.142C10.4853 3.19583 11.412 2.5 12.5003 2.5H15.0003ZM15.0003 14.1667H12.5003C12.0403 14.1667 11.667 14.54 11.667 15C11.667 15.46 12.0403 15.8333 12.5003 15.8333H15.0003C15.4603 15.8333 15.8337 15.46 15.8337 15C15.8337 14.54 15.4603 14.1667 15.0003 14.1667ZM6.66699 9.16667H4.16699C3.70699 9.16667 3.33366 9.54 3.33366 10C3.33366 10.46 3.70699 10.8333 4.16699 10.8333H6.66699C7.12699 10.8333 7.50033 10.46 7.50033 10C7.50033 9.54 7.12699 9.16667 6.66699 9.16667ZM15.0003 4.16667H12.5003C12.0403 4.16667 11.667 4.54 11.667 5C11.667 5.46 12.0403 5.83333 12.5003 5.83333H15.0003C15.4603 5.83333 15.8337 5.46 15.8337 5C15.8337 4.54 15.4603 4.16667 15.0003 4.16667Z" fill="#9CA3AF"/>
</g>
<defs>
<clipPath id="clip0_5619_108412">
<rect width="20" height="20" fill="white"/>
</clipPath>
</defs>
</svg>
