<svg width="40" height="40" viewBox="0 0 40 40" fill="none" xmlns="http://www.w3.org/2000/svg">
<path d="M23.3334 23.7533V27.2367C21.825 26.7033 20.2105 26.5397 18.6258 26.7596C17.041 26.9795 15.5321 27.5765 14.2258 28.5003C12.9195 29.4242 11.854 30.648 11.1187 32.069C10.3834 33.49 9.99978 35.0667 10.0001 36.6667L6.66675 36.665C6.66623 34.6298 7.13162 32.6215 8.02725 30.794C8.92287 28.9665 10.225 27.3682 11.8338 26.1217C13.4426 24.8752 15.3154 24.0135 17.3087 23.6027C19.302 23.1919 21.3629 23.2429 23.3334 23.7517V23.7533ZM20.0001 21.6667C14.4751 21.6667 10.0001 17.1917 10.0001 11.6667C10.0001 6.14166 14.4751 1.66666 20.0001 1.66666C25.5251 1.66666 30.0001 6.14166 30.0001 11.6667C30.0001 17.1917 25.5251 21.6667 20.0001 21.6667ZM20.0001 18.3333C23.6834 18.3333 26.6667 15.35 26.6667 11.6667C26.6667 7.98332 23.6834 4.99999 20.0001 4.99999C16.3167 4.99999 13.3334 7.98332 13.3334 11.6667C13.3334 15.35 16.3167 18.3333 20.0001 18.3333ZM29.6551 33.19L35.5467 27.2983L37.9051 29.655L29.6551 37.905L23.7617 32.0117L26.1201 29.655L29.6534 33.19H29.6551Z" fill="#0284C7"/>
</svg>
