<svg width="40" height="40" viewBox="0 0 40 40" fill="none" xmlns="http://www.w3.org/2000/svg">
<path d="M31.6667 16.6666H33.3333C33.7754 16.6666 34.1993 16.8422 34.5118 17.1548C34.8244 17.4674 35 17.8913 35 18.3333V35C35 35.442 34.8244 35.8659 34.5118 36.1785C34.1993 36.4911 33.7754 36.6666 33.3333 36.6666H6.66667C6.22464 36.6666 5.80072 36.4911 5.48816 36.1785C5.17559 35.8659 5 35.442 5 35V18.3333C5 17.8913 5.17559 17.4674 5.48816 17.1548C5.80072 16.8422 6.22464 16.6666 6.66667 16.6666H8.33333V15C8.33333 13.4679 8.6351 11.9508 9.22141 10.5353C9.80771 9.11987 10.6671 7.83375 11.7504 6.7504C12.8338 5.66705 14.1199 4.80769 15.5354 4.22139C16.9508 3.63508 18.4679 3.33331 20 3.33331C21.5321 3.33331 23.0492 3.63508 24.4646 4.22139C25.8801 4.80769 27.1662 5.66705 28.2496 6.7504C29.3329 7.83375 30.1923 9.11987 30.7786 10.5353C31.3649 11.9508 31.6667 13.4679 31.6667 15V16.6666ZM8.33333 20V33.3333H31.6667V20H8.33333ZM18.3333 23.3333H21.6667V30H18.3333V23.3333ZM28.3333 16.6666V15C28.3333 12.7898 27.4554 10.6702 25.8926 9.10742C24.3298 7.54462 22.2101 6.66665 20 6.66665C17.7899 6.66665 15.6702 7.54462 14.1074 9.10742C12.5446 10.6702 11.6667 12.7898 11.6667 15V16.6666H28.3333Z" fill="#0284C7"/>
</svg>
