<svg width="14" height="15" viewBox="0 0 14 15" fill="none" xmlns="http://www.w3.org/2000/svg">
<path d="M1.33329 14.1663C1.15648 14.1663 0.986912 14.0961 0.861888 13.9711C0.736864 13.8461 0.666626 13.6765 0.666626 13.4997V1.49967C0.666626 1.32286 0.736864 1.15329 0.861888 1.02827C0.986912 0.903246 1.15648 0.833008 1.33329 0.833008H10.6666C10.8434 0.833008 11.013 0.903246 11.138 1.02827C11.2631 1.15329 11.3333 1.32286 11.3333 1.49967V3.49967H9.99996V2.16634H1.99996V12.833H9.99996V11.4997H11.3333V13.4997C11.3333 13.6765 11.2631 13.8461 11.138 13.9711C11.013 14.0961 10.8434 14.1663 10.6666 14.1663H1.33329ZM9.99996 10.1663V8.16634H5.33329V6.83301H9.99996V4.83301L13.3333 7.49967L9.99996 10.1663Z" fill="#0284C7"/>
</svg>
