<svg width="24" height="24" viewBox="0 0 24 24" fill="none" xmlns="http://www.w3.org/2000/svg">
<rect width="24" height="24" rx="12" fill="#F3F4F6"/>
<g clip-path="url(#clip0_3018_11513)">
<path d="M8 9.33366V8.66699C8 7.60613 8.42143 6.58871 9.17157 5.83857C9.92172 5.08842 10.9391 4.66699 12 4.66699C13.0609 4.66699 14.0783 5.08842 14.8284 5.83857C15.5786 6.58871 16 7.60613 16 8.66699V9.33366H17.3333C17.5101 9.33366 17.6797 9.4039 17.8047 9.52892C17.9298 9.65395 18 9.82351 18 10.0003V18.0003C18 18.1771 17.9298 18.3467 17.8047 18.4717C17.6797 18.5968 17.5101 18.667 17.3333 18.667H6.66667C6.48986 18.667 6.32029 18.5968 6.19526 18.4717C6.07024 18.3467 6 18.1771 6 18.0003V10.0003C6 9.82351 6.07024 9.65395 6.19526 9.52892C6.32029 9.4039 6.48986 9.33366 6.66667 9.33366H8ZM16.6667 10.667H7.33333V17.3337H16.6667V10.667ZM11.3333 14.4883C11.0791 14.3416 10.8805 14.115 10.7682 13.8439C10.6558 13.5727 10.6361 13.272 10.7121 12.9885C10.7881 12.705 10.9555 12.4545 11.1883 12.2758C11.4212 12.0971 11.7065 12.0003 12 12.0003C12.2935 12.0003 12.5788 12.0971 12.8117 12.2758C13.0445 12.4545 13.2119 12.705 13.2879 12.9885C13.3639 13.272 13.3442 13.5727 13.2318 13.8439C13.1195 14.115 12.9209 14.3416 12.6667 14.4883V16.0003H11.3333V14.4883ZM9.33333 9.33366H14.6667V8.66699C14.6667 7.95975 14.3857 7.28147 13.8856 6.78137C13.3855 6.28128 12.7072 6.00033 12 6.00033C11.2928 6.00033 10.6145 6.28128 10.1144 6.78137C9.61428 7.28147 9.33333 7.95975 9.33333 8.66699V9.33366Z" fill="#9CA3AF"/>
</g>
<defs>
<clipPath id="clip0_3018_11513">
<rect width="16" height="16" fill="white" transform="translate(4 4)"/>
</clipPath>
</defs>
</svg>
