<?xml version="1.0" standalone="no"?>
<!DOCTYPE svg PUBLIC "-//W3C//DTD SVG 20010904//EN"
 "http://www.w3.org/TR/2001/REC-SVG-20010904/DTD/svg10.dtd">
<svg version="1.0" xmlns="http://www.w3.org/2000/svg"
 width="512.000000pt" height="512.000000pt" viewBox="0 0 512.000000 512.000000"
 preserveAspectRatio="xMidYMid meet">

<g transform="translate(0.000000,512.000000) scale(0.100000,-0.100000)"
fill="#000000" stroke="none">
<path d="M1388 3783 c6 -2 18 -2 25 0 6 3 1 5 -13 5 -14 0 -19 -2 -12 -5z"/>
<path d="M1573 3783 c9 -2 23 -2 30 0 6 3 -1 5 -18 5 -16 0 -22 -2 -12 -5z"/>
<path d="M1725 3750 c27 -12 43 -12 25 0 -8 5 -22 9 -30 9 -10 0 -8 -3 5 -9z"/>
<path d="M1210 3740 c-8 -5 -10 -10 -5 -10 6 0 17 5 25 10 8 5 11 10 5 10 -5
0 -17 -5 -25 -10z"/>
<path d="M1780 3730 c8 -5 20 -10 25 -10 6 0 3 5 -5 10 -8 5 -19 10 -25 10 -5
0 -3 -5 5 -10z"/>
<path d="M1148 3714 c-39 -21 -35 -28 5 -8 37 19 44 24 31 24 -5 -1 -21 -8
-36 -16z"/>
<path d="M1880 3683 c13 -10 44 -33 67 -50 24 -18 46 -33 49 -33 11 0 -74 65
-109 84 -31 16 -31 16 -7 -1z"/>
<path d="M1005 3620 c-53 -43 -103 -96 -136 -145 l-21 -30 22 25 c60 68 99
109 145 147 64 54 56 56 -10 3z"/>
<path d="M1945 3519 c-28 -28 -71 -69 -98 -91 l-47 -40 -33 24 c-40 31 -97 61
-104 55 -2 -3 5 -8 16 -12 11 -3 43 -22 71 -41 38 -26 54 -32 68 -25 19 10
190 181 181 181 -2 0 -27 -23 -54 -51z"/>
<path d="M1458 3493 c23 -2 59 -2 80 0 20 2 1 4 -43 4 -44 0 -61 -2 -37 -4z"/>
<path d="M1378 3483 c7 -3 16 -2 19 1 4 3 -2 6 -13 5 -11 0 -14 -3 -6 -6z"/>
<path d="M1598 3483 c7 -3 16 -2 19 1 4 3 -2 6 -13 5 -11 0 -14 -3 -6 -6z"/>
<path d="M1199 3398 c-29 -24 -64 -59 -78 -78 -16 -22 -6 -14 29 21 30 30 69
65 85 77 17 12 27 22 23 22 -4 0 -31 -19 -59 -42z"/>
<path d="M800 3369 c-12 -23 -20 -43 -18 -45 3 -2 14 17 26 41 27 56 20 60 -8
4z"/>
<path d="M766 3295 c-9 -26 -7 -32 5 -12 6 10 9 21 6 23 -2 3 -7 -2 -11 -11z"/>
<path d="M1070 3239 c-12 -23 -20 -43 -18 -45 3 -2 14 17 26 41 27 56 20 60
-8 4z"/>
<path d="M741 3214 c0 -11 3 -14 6 -6 3 7 2 16 -1 19 -3 4 -6 -2 -5 -13z"/>
<path d="M731 3174 c0 -11 3 -14 6 -6 3 7 2 16 -1 19 -3 4 -6 -2 -5 -13z"/>
<path d="M1668 3163 c100 -2 264 -2 365 0 100 1 18 2 -183 2 -201 0 -283 -1
-182 -2z"/>
<path d="M3480 3014 l0 -154 -228 0 -228 0 30 -90 31 -90 488 0 c423 0 487 -2
487 -15 0 -76 -180 -404 -299 -545 -25 -30 -31 -33 -46 -20 -29 24 -135 173
-187 263 l-50 87 -119 0 -119 0 24 -54 c50 -113 167 -299 256 -405 27 -33 50
-64 50 -68 0 -4 -41 -49 -91 -99 l-91 -92 35 -107 c20 -59 35 -111 32 -115 -2
-3 29 -110 70 -236 l73 -229 -549 -3 c-554 -2 -589 0 -589 33 0 13 -44 15
-307 15 -170 0 -639 1 -1043 2 -731 3 -735 3 -782 25 -65 30 -113 70 -148 122
-38 57 -39 41 -1 -24 32 -56 101 -122 137 -131 13 -3 22 -10 19 -14 -3 -5 5
-6 17 -2 13 3 19 1 15 -5 -4 -6 4 -9 18 -7 14 1 25 -2 25 -7 0 -6 411 -9 1036
-9 571 0 1039 -1 1041 -3 2 -2 68 -205 148 -452 79 -246 146 -450 149 -453 4
-3 12 2 19 10 6 9 190 211 407 448 217 237 396 436 398 440 2 5 -31 113 -72
242 l-76 233 133 133 132 132 287 -287 288 -288 75 75 75 75 -285 285 c-157
157 -285 289 -285 293 0 4 23 36 52 70 126 152 245 364 313 562 l42 120 201 0
202 0 0 93 0 92 -454 0 -454 0 -7 103 c-4 57 -5 125 -4 150 l3 46 -147 5 -147
5 0 -155z"/>
<path d="M1031 3134 c0 -11 3 -14 6 -6 3 7 2 16 -1 19 -3 4 -6 -2 -5 -13z"/>
<path d="M722 3105 c0 -16 2 -22 5 -12 2 9 2 23 0 30 -3 6 -5 -1 -5 -18z"/>
<path d="M2222 3110 c0 -14 2 -19 5 -12 2 6 2 18 0 25 -3 6 -5 1 -5 -13z"/>
<path d="M1022 3070 c0 -19 2 -27 5 -17 2 9 2 25 0 35 -3 9 -5 1 -5 -18z"/>
<path d="M2233 2990 c0 -47 2 -66 4 -42 2 23 2 61 0 85 -2 23 -4 4 -4 -43z"/>
<path d="M1022 2970 c0 -19 2 -27 5 -17 2 9 2 25 0 35 -3 9 -5 1 -5 -18z"/>
<path d="M722 2925 c0 -16 2 -22 5 -12 2 9 2 23 0 30 -3 6 -5 -1 -5 -18z"/>
<path d="M1031 2904 c0 -11 3 -14 6 -6 3 7 2 16 -1 19 -3 4 -6 -2 -5 -13z"/>
<path d="M1700 2883 c156 -3 216 -7 222 -16 5 -8 8 -7 8 6 0 16 -16 17 -222
15 l-223 -3 215 -2z"/>
<path d="M2222 2865 c0 -16 2 -22 5 -12 2 9 2 23 0 30 -3 6 -5 -1 -5 -18z"/>
<path d="M731 2864 c0 -11 3 -14 6 -6 3 7 2 16 -1 19 -3 4 -6 -2 -5 -13z"/>
<path d="M1041 2870 c0 -8 4 -22 9 -30 12 -18 12 -2 0 25 -6 13 -9 15 -9 5z"/>
<path d="M1911 2834 c0 -11 3 -14 6 -6 3 7 2 16 -1 19 -3 4 -6 -2 -5 -13z"/>
<path d="M2212 2810 c0 -14 2 -19 5 -12 2 6 2 18 0 25 -3 6 -5 1 -5 -13z"/>
<path d="M1060 2813 c0 -5 20 -38 44 -73 42 -59 107 -121 151 -141 12 -6 10
-2 -5 8 -57 40 -115 101 -152 157 -21 33 -38 55 -38 49z"/>
<path d="M1896 2795 c-9 -26 -7 -32 5 -12 6 10 9 21 6 23 -2 3 -7 -2 -11 -11z"/>
<path d="M751 2790 c0 -8 4 -22 9 -30 12 -18 12 -2 0 25 -6 13 -9 15 -9 5z"/>
<path d="M2192 2743 c-15 -48 -8 -55 8 -8 7 20 10 38 8 41 -3 2 -10 -13 -16
-33z"/>
<path d="M770 2735 c0 -5 5 -17 10 -25 5 -8 10 -10 10 -5 0 6 -5 17 -10 25 -5
8 -10 11 -10 5z"/>
<path d="M1856 2716 c-41 -64 -115 -118 -205 -151 -20 -8 -29 -14 -21 -14 53
-3 205 104 239 168 16 29 7 27 -13 -3z"/>
<path d="M2137 2616 c-64 -125 -184 -239 -318 -301 -30 -14 -43 -22 -29 -19
70 18 181 95 257 179 53 57 142 200 131 210 -2 2 -20 -29 -41 -69z"/>
<path d="M811 2648 c64 -123 204 -260 336 -327 67 -34 64 -24 -3 13 -130 69
-229 161 -300 276 -36 59 -56 81 -33 38z"/>
<path d="M1310 2570 c8 -5 20 -10 25 -10 6 0 3 5 -5 10 -8 5 -19 10 -25 10 -5
0 -3 -5 5 -10z"/>
<path d="M1358 2553 c7 -3 16 -2 19 1 4 3 -2 6 -13 5 -11 0 -14 -3 -6 -6z"/>
<path d="M1403 2543 c9 -2 23 -2 30 0 6 3 -1 5 -18 5 -16 0 -22 -2 -12 -5z"/>
<path d="M1573 2543 c9 -2 23 -2 30 0 6 3 -1 5 -18 5 -16 0 -22 -2 -12 -5z"/>
<path d="M1478 2533 c12 -2 30 -2 40 0 9 3 -1 5 -23 4 -22 0 -30 -2 -17 -4z"/>
<path d="M3142 2470 c0 -8 6 -31 13 -50 7 -19 13 -28 13 -20 0 8 -6 31 -13 50
-7 19 -13 28 -13 20z"/>
<path d="M1235 2285 c17 -8 37 -14 45 -14 8 0 -1 7 -20 14 -46 18 -64 17 -25
0z"/>
<path d="M1308 2263 c7 -3 16 -2 19 1 4 3 -2 6 -13 5 -11 0 -14 -3 -6 -6z"/>
<path d="M1668 2263 c6 -2 18 -2 25 0 6 3 1 5 -13 5 -14 0 -19 -2 -12 -5z"/>
<path d="M1353 2253 c9 -2 23 -2 30 0 6 3 -1 5 -18 5 -16 0 -22 -2 -12 -5z"/>
<path d="M1618 2253 c6 -2 18 -2 25 0 6 3 1 5 -13 5 -14 0 -19 -2 -12 -5z"/>
<path d="M1453 2243 c26 -2 68 -2 95 0 26 2 4 3 -48 3 -52 0 -74 -1 -47 -3z"/>
<path d="M3241 2164 c-1 -5 10 -41 23 -80 14 -38 25 -64 25 -58 1 5 -10 41
-23 80 -14 38 -25 64 -25 58z"/>
<path d="M3331 1884 c-1 -5 10 -41 23 -80 14 -38 25 -64 25 -58 1 5 -10 41
-23 80 -14 38 -25 64 -25 58z"/>
</g>
</svg>
