<svg width="16" height="17" viewBox="0 0 16 17" fill="none" xmlns="http://www.w3.org/2000/svg">
<g clip-path="url(#clip0_1370_18044)">
<path d="M10 3.16659H3.33333V13.8333H12.6667V5.83325H10V3.16659ZM2 2.49459C2 2.12925 2.298 1.83325 2.666 1.83325H10.6667L14 5.16659V14.4953C14.0006 14.5828 13.984 14.6696 13.951 14.7507C13.9181 14.8319 13.8695 14.9057 13.808 14.968C13.7466 15.0304 13.6734 15.08 13.5928 15.1141C13.5121 15.1481 13.4255 15.166 13.338 15.1666H2.662C2.48692 15.1654 2.31934 15.0953 2.19548 14.9716C2.07161 14.8478 2.0014 14.6803 2 14.5053V2.49459ZM8.66667 8.49992V11.1666H7.33333V8.49992H5.33333L8 5.83325L10.6667 8.49992H8.66667Z" fill="#9CA3AF"/>
</g>
<defs>
<clipPath id="clip0_1370_18044">
<rect width="16" height="16" fill="white" transform="translate(0 0.5)"/>
</clipPath>
</defs>
</svg>
