<svg width="32" height="32" viewBox="0 0 32 32" fill="none" xmlns="http://www.w3.org/2000/svg">
<circle cx="16" cy="16" r="15" fill="#F3F4F6" stroke="white" stroke-width="2"/>
<g clip-path="url(#clip0_1469_13367)">
<path d="M16 19.3335C18.4414 19.3335 20.5767 20.3835 21.738 21.9502L20.51 22.5308C19.5647 21.4108 17.898 20.6668 16 20.6668C14.102 20.6668 12.4354 21.4108 11.49 22.5308L10.2627 21.9495C11.424 20.3828 13.5587 19.3335 16 19.3335ZM16 9.3335C16.8841 9.3335 17.7319 9.68469 18.3571 10.3098C18.9822 10.9349 19.3334 11.7828 19.3334 12.6668V14.6668C19.3333 15.5258 19.0017 16.3516 18.4076 16.972C17.8135 17.5924 17.0029 17.9595 16.1447 17.9968L16 18.0002C15.116 18.0002 14.2681 17.649 13.643 17.0239C13.0179 16.3987 12.6667 15.5509 12.6667 14.6668V12.6668C12.6667 11.8079 12.9984 10.9821 13.5925 10.3616C14.1865 9.74123 14.9972 9.37411 15.8554 9.33683L16 9.3335ZM16 10.6668C15.4899 10.6668 14.999 10.8617 14.6279 11.2117C14.2567 11.5617 14.0333 12.0402 14.0034 12.5495L14 12.6668V14.6668C13.9995 15.1874 14.202 15.6877 14.5645 16.0614C14.927 16.435 15.421 16.6526 15.9413 16.6679C16.4617 16.6832 16.9675 16.4949 17.3513 16.1432C17.7351 15.7914 17.9667 15.3039 17.9967 14.7842L18 14.6668V12.6668C18 12.1364 17.7893 11.6277 17.4142 11.2526C17.0392 10.8775 16.5305 10.6668 16 10.6668Z" fill="#4B5563"/>
</g>
<defs>
<clipPath id="clip0_1469_13367">
<rect width="16" height="16" fill="white" transform="translate(8 8)"/>
</clipPath>
</defs>
</svg>
