<svg width="40" height="40" viewBox="0 0 40 40" fill="none" xmlns="http://www.w3.org/2000/svg">
<rect width="40" height="40" rx="20" fill="#FEF0C7"/>
<g clip-path="url(#clip0_7176_142497)">
<path d="M20.7218 12.5L28.6602 26.25C28.7333 26.3767 28.7718 26.5204 28.7718 26.6667C28.7718 26.8129 28.7333 26.9566 28.6602 27.0833C28.587 27.21 28.4818 27.3152 28.3552 27.3884C28.2285 27.4615 28.0848 27.5 27.9385 27.5H12.0618C11.9155 27.5 11.7718 27.4615 11.6452 27.3884C11.5185 27.3152 11.4133 27.21 11.3402 27.0833C11.267 26.9566 11.2285 26.8129 11.2285 26.6667C11.2285 26.5204 11.267 26.3767 11.3402 26.25L19.2785 12.5C19.3516 12.3733 19.4568 12.2681 19.5835 12.195C19.7102 12.1219 19.8539 12.0834 20.0002 12.0834C20.1464 12.0834 20.2901 12.1219 20.4168 12.195C20.5435 12.2681 20.6487 12.3733 20.7218 12.5ZM13.5052 25.8333H26.4952L20.0002 14.5833L13.5052 25.8333ZM19.1668 23.3333H20.8335V25H19.1668V23.3333ZM19.1668 17.5H20.8335V21.6667H19.1668V17.5Z" fill="#D97706"/>
</g>
<defs>
<clipPath id="clip0_7176_142497">
<rect width="20" height="20" fill="white" transform="translate(10 10)"/>
</clipPath>
</defs>
</svg>
